<svg width="24" height="23" viewBox="0 0 24 23" fill="none" xmlns="http://www.w3.org/2000/svg">
<path fill-rule="evenodd" clip-rule="evenodd" d="M15 1.5C15 0.671573 15.6716 0 16.5 0H17C17.5523 0 18 0.447715 18 1C18 1.55228 18.4477 2 19 2H22.5C23.3284 2 24 2.67157 24 3.5C24 4.32843 23.3284 5 22.5 5H19.5C18.6716 5 18 5.67157 18 6.5C18 7.32843 17.3284 8 16.5 8C15.6716 8 15 7.32843 15 6.5V1.5ZM0 3.5C0 2.67157 0.671573 2 1.5 2H10.5C11.3284 2 12 2.67157 12 3.5C12 4.32843 11.3284 5 10.5 5H1.5C0.671573 5 0 4.32843 0 3.5ZM13.5 13C12.6716 13 12 12.3284 12 11.5C12 10.6716 12.6716 10 13.5 10L22.5 10C23.3284 10 24 10.6716 24 11.5C24 12.3284 23.3284 13 22.5 13L13.5 13ZM10.5 21C11.3284 21 12 20.3284 12 19.5C12 18.6716 11.3284 18 10.5 18L1.5 18C0.671573 18 0 18.6716 0 19.5C0 20.3284 0.671573 21 1.5 21L10.5 21ZM6 14.5C6 15.3284 6.67157 16 7.5 16C8.32843 16 9 15.3284 9 14.5L9 8.5C9 7.67157 8.32843 7 7.5 7C6.67157 7 6 7.67157 6 8.5C6 9.32843 5.32843 10 4.5 10L1.5 10C0.671573 10 0 10.6716 0 11.5C0 12.3284 0.671573 13 1.5 13L4.5 13C5.32843 13 6 13.6716 6 14.5ZM15 16.5C15 15.6716 15.6716 15 16.5 15C17.3284 15 18 15.6716 18 16.5C18 17.3284 18.6716 18 19.5 18L22.5 18C23.3284 18 24 18.6716 24 19.5C24 20.3284 23.3284 21 22.5 21L19 21C18.4477 21 18 21.4477 18 22C18 22.5523 17.5523 23 17 23H16.5C15.6716 23 15 22.3284 15 21.5L15 16.5Z" fill="#5F5F5F"/>
</svg>
